#N canvas 279 286 450 300 10;
#X obj 316 62 bng 15 250 50 0 empty empty empty 17 7 0 10 -262144 -1
-1;
#X obj 239 257 dac~;
#X obj 252 206 line~;
#X obj 236 231 *~;
#X obj 274 152 del 80;
#X msg 258 119 0.3 80;
#X msg 249 79 0.8 10;
#X obj 159 31 osc~ 60;
#X obj 258 100 del 18;
#X floatatom 102 5 5 0 0 0 - - -;
#X obj 133 89 osc~;
#X obj 124 165 osc~;
#X msg 275 173 0 2300;
#X obj 124 187 *~ 0.5;
#X obj 93 215 osc~;
#X obj 93 237 *~ 0.2;
#X obj 52 86 osc~;
#X obj 43 162 osc~;
#X obj 12 212 osc~;
#X obj 43 141 * 13;
#X obj 12 191 * 17;
#X obj 52 108 *~ 0.2;
#X obj 43 184 *~ 0.2;
#X obj 12 234 *~ 0.1;
#X obj 93 194 * 11;
#X obj 133 68 * 2;
#X obj 133 111 *~ 0.9;
#X obj 124 144 * 5;
#X obj 52 65 * 9.7;
#X connect 0 0 6 0;
#X connect 0 0 4 0;
#X connect 0 0 8 0;
#X connect 2 0 3 1;
#X connect 3 0 1 0;
#X connect 3 0 1 1;
#X connect 4 0 12 0;
#X connect 5 0 2 0;
#X connect 6 0 2 0;
#X connect 7 0 3 0;
#X connect 8 0 5 0;
#X connect 9 0 7 0;
#X connect 9 0 19 0;
#X connect 9 0 20 0;
#X connect 9 0 24 0;
#X connect 9 0 25 0;
#X connect 9 0 27 0;
#X connect 9 0 28 0;
#X connect 10 0 26 0;
#X connect 11 0 13 0;
#X connect 12 0 2 0;
#X connect 13 0 3 0;
#X connect 14 0 15 0;
#X connect 15 0 3 0;
#X connect 16 0 21 0;
#X connect 17 0 22 0;
#X connect 18 0 23 0;
#X connect 19 0 17 0;
#X connect 20 0 18 0;
#X connect 21 0 3 0;
#X connect 22 0 3 0;
#X connect 23 0 3 0;
#X connect 24 0 14 0;
#X connect 25 0 10 0;
#X connect 26 0 3 0;
#X connect 27 0 11 0;
#X connect 28 0 16 0;
