#N canvas 337 357 522 392 10;
#X text 192 3 \$1 freq \, \$2 trem rate;
#X obj 171 208 osc~;
#X obj 205 210 osc~;
#X obj 104 366 outlet~;
#X obj 52 25 inlet;
#X obj 248 212 osc~;
#X obj 255 240 *~ 0.2;
#X obj 199 239 *~ 0.3;
#X obj 378 61 bng 15 250 50 0 empty empty empty 17 7 0 10 -262144 -1
-1;
#X obj 236 90 loadbang;
#X obj 212 132 \$1;
#X obj 110 289 *~;
#X obj 109 323 *~;
#X obj 151 300 osc~ \$2;
#X obj 57 65 sel 84 82;
#X obj 52 45 unpack f f;
#X obj 237 42 inlet;
#X obj 357 216 inlet;
#X text 52 11 trigger pack;
#X text 246 26 \$1;
#X obj 120 32 print \$1;
#X obj 105 225 line~;
#X obj 394 61 tgl 15 0 empty empty empty 17 7 0 10 -262144 -1 -1 0
1;
#X obj 410 160 print v;
#X obj 109 343 *~ 1;
#X text 139 341 \$3;
#X msg 63 138 0.3 80;
#X msg 54 98 0.8 10;
#X msg 100 187 0 2000;
#X obj 63 119 del 18;
#X obj 153 321 *~ 0.4;
#X obj 99 166 del 100;
#X obj 302 155 osc~;
#X obj 305 114 \$2;
#X obj 296 175 *~ 1000;
#X obj 209 164 +~;
#X obj 206 189 *~ 4;
#X obj 246 189 *~ 7;
#X obj 302 134 / 1000;
#X obj 158 281 +~;
#X obj 357 236 \$2;
#X obj 308 194 *~ 12;
#X connect 1 0 11 0;
#X connect 2 0 7 0;
#X connect 4 0 15 0;
#X connect 5 0 6 0;
#X connect 6 0 11 0;
#X connect 7 0 11 0;
#X connect 8 0 29 0;
#X connect 8 0 27 0;
#X connect 8 0 31 0;
#X connect 9 0 10 0;
#X connect 9 0 33 0;
#X connect 10 0 35 0;
#X connect 11 0 12 0;
#X connect 12 0 24 0;
#X connect 13 0 30 0;
#X connect 14 0 27 0;
#X connect 14 0 29 0;
#X connect 14 0 31 0;
#X connect 15 1 14 0;
#X connect 15 1 20 0;
#X connect 16 0 10 0;
#X connect 17 0 40 0;
#X connect 21 0 11 1;
#X connect 24 0 3 0;
#X connect 26 0 21 0;
#X connect 27 0 21 0;
#X connect 28 0 21 0;
#X connect 29 0 26 0;
#X connect 30 0 12 1;
#X connect 31 0 28 0;
#X connect 32 0 34 0;
#X connect 32 0 41 0;
#X connect 33 0 38 0;
#X connect 34 0 35 1;
#X connect 35 0 36 0;
#X connect 35 0 1 0;
#X connect 35 0 37 0;
#X connect 36 0 2 0;
#X connect 37 0 5 0;
#X connect 38 0 32 0;
#X connect 39 0 13 0;
#X connect 40 0 39 0;
#X connect 41 0 39 1;
#X coords 0 -1 1 1 110 17 1 300 60;
