#N canvas 391 23 682 492 10;
#X obj 32 50 comport 3 9600;
#X obj 30 70 repack 6;
#X obj 28 130 route 48 49;
#X obj 30 90 unpack f f f f f f;
#X obj 28 110 pack f f f f;
#X obj 9 155 route 48 49 50 51 52 53 54 55 56 57;
#X obj 225 155 route 48 49;
#X obj 113 129 print chime;
#X obj 46 386 dac~;
#X obj 48 356 +~;
#X floatatom 400 55 5 0 0 0 - - -;
#X floatatom 357 135 5 0 0 0 - - -;
#X floatatom 393 135 5 0 0 0 - - -;
#X floatatom 430 135 5 0 0 0 - - -;
#X floatatom 376 175 5 0 0 0 - - -;
#X floatatom 423 175 5 0 0 0 - - -;
#X floatatom 462 175 5 0 0 0 - - -;
#X floatatom 467 135 5 0 0 0 - - -;
#X floatatom 512 135 5 0 0 0 - - -;
#X floatatom 549 135 5 0 0 0 - - -;
#X floatatom 505 175 5 0 0 0 - - -;
#X floatatom 547 175 5 0 0 0 - - -;
#X obj 358 115 * 1.3;
#X obj 394 115 * 1.5;
#X obj 431 115 * 1.8;
#X obj 468 115 * 2.25;
#X obj 513 115 * 2.4;
#X obj 550 115 * 2.72;
#X obj 377 155 * 2.93;
#X obj 424 155 * 3;
#X obj 506 155 * 3.66;
#X obj 463 155 * 3.33;
#X obj 548 155 * 3.9;
#X text 471 57 tuning bank;
#X obj 54 271 chime 315 4;
#X obj 10 199 chime 90 1.9 4;
#X obj 56 310 chime 435 16;
#X obj 72 218 chime 123 3;
#X obj 116 290 chime 513 10;
#X obj 132 201 chime 600 7;
#X obj 207 309 chime 740 2;
#X obj 33 235 chime 120 1.2 4;
#X obj 181 273 chime 170 5;
#X obj 95 254 chime 682 11;
#X obj 136 326 chime 443 9;
#X obj 155 237 chime 633 13;
#X connect 0 0 1 0;
#X connect 1 0 3 0;
#X connect 2 0 5 0;
#X connect 2 1 6 0;
#X connect 3 0 4 0;
#X connect 3 1 4 1;
#X connect 3 2 4 2;
#X connect 3 3 4 3;
#X connect 4 0 2 0;
#X connect 4 0 7 0;
#X connect 5 0 35 0;
#X connect 5 1 41 0;
#X connect 5 2 34 0;
#X connect 5 3 36 0;
#X connect 5 4 37 0;
#X connect 5 5 43 0;
#X connect 5 6 38 0;
#X connect 5 7 44 0;
#X connect 5 8 39 0;
#X connect 5 9 45 0;
#X connect 6 0 42 0;
#X connect 6 1 40 0;
#X connect 9 0 8 0;
#X connect 9 0 8 1;
#X connect 10 0 22 0;
#X connect 10 0 23 0;
#X connect 10 0 24 0;
#X connect 10 0 25 0;
#X connect 10 0 26 0;
#X connect 10 0 27 0;
#X connect 10 0 28 0;
#X connect 10 0 29 0;
#X connect 10 0 30 0;
#X connect 10 0 31 0;
#X connect 10 0 32 0;
#X connect 10 0 35 1;
#X connect 11 0 37 1;
#X connect 12 0 39 1;
#X connect 13 0 41 1;
#X connect 14 0 38 1;
#X connect 15 0 42 1;
#X connect 16 0 36 1;
#X connect 17 0 43 1;
#X connect 18 0 45 1;
#X connect 19 0 34 1;
#X connect 20 0 44 1;
#X connect 21 0 40 1;
#X connect 22 0 11 0;
#X connect 23 0 12 0;
#X connect 24 0 13 0;
#X connect 25 0 17 0;
#X connect 26 0 18 0;
#X connect 27 0 19 0;
#X connect 28 0 14 0;
#X connect 29 0 15 0;
#X connect 30 0 20 0;
#X connect 31 0 16 0;
#X connect 32 0 21 0;
#X connect 34 0 9 0;
#X connect 35 0 9 0;
#X connect 36 0 9 0;
#X connect 37 0 9 0;
#X connect 38 0 9 1;
#X connect 39 0 9 1;
#X connect 40 0 9 1;
#X connect 41 0 9 0;
#X connect 42 0 9 1;
#X connect 43 0 9 0;
#X connect 44 0 9 1;
#X connect 45 0 9 1;
